<svg xmlns="http://www.w3.org/2000/svg" width="167.137" height="38" viewBox="0 0 167.137 38">
  <g id="logo" transform="translate(-168.602 -29.5)">
    <path id="name" d="M.81-1.7A7.419,7.419,0,0,0,6.237.324c3.429,0,5.265-1.755,5.265-4,0-3-2.7-3.618-4.968-4.131-1.62-.378-3.024-.756-3.024-1.89,0-1.053,1.026-1.7,2.673-1.7A5.084,5.084,0,0,1,10.044-9.8l1.08-1.7a6.979,6.979,0,0,0-4.968-1.863c-3.186,0-4.968,1.782-4.968,3.861,0,2.808,2.592,3.4,4.806,3.915,1.674.378,3.159.81,3.159,2.106,0,1.107-.972,1.863-2.808,1.863A6.318,6.318,0,0,1,1.971-3.483ZM18.171.324a3.461,3.461,0,0,0,2.538-.837l-.621-1.836a1.869,1.869,0,0,1-1.323.513c-.837,0-1.269-.675-1.269-1.593v-7.479h2.646v-2.133H17.5V-16.6h-2.43v3.564h-2.16v2.133h2.16v8.019C15.066-.837,16.119.324,18.171.324ZM30.888,0h2.43V-8.8c0-3.321-2.4-4.563-5.238-4.563a7.331,7.331,0,0,0-5.346,2.133l1.053,1.674A5.336,5.336,0,0,1,27.7-11.286c1.863,0,3.186.972,3.186,2.592v2.16a5.439,5.439,0,0,0-4.266-1.728c-2.187,0-4.536,1.3-4.536,4.266A4.334,4.334,0,0,0,26.622.324a5.59,5.59,0,0,0,4.266-1.755Zm0-2.862A4.131,4.131,0,0,1,27.54-1.377c-1.755,0-3-1.053-3-2.592s1.242-2.592,3-2.592a4.131,4.131,0,0,1,3.348,1.485Zm6.048,5.778L36.558,5.1a7.024,7.024,0,0,0,1.512.189,4.121,4.121,0,0,0,4.158-2.808l6.426-15.525H46.035L41.958-2.808,37.881-13.041H35.289L40.662.135l-.756,1.728a1.8,1.8,0,0,1-1.89,1.269A2.963,2.963,0,0,1,36.936,2.916Zm12.8-4.644A6.316,6.316,0,0,0,54.756.324C58,.324,59.643-1.4,59.643-3.51c0-2.781-2.511-3.4-4.752-3.969-1.809-.459-3.483-.864-3.483-2.349,0-1.35,1.242-2.349,3.267-2.349a4.751,4.751,0,0,1,3.888,1.728l.783-.972a5.918,5.918,0,0,0-4.671-1.944c-2.97,0-4.644,1.62-4.644,3.618,0,2.538,2.4,3.105,4.563,3.645,1.89.486,3.672.972,3.672,2.646,0,1.512-1.3,2.592-3.483,2.592a5.389,5.389,0,0,1-4.212-1.917ZM62.505-6.534c0,4.023,2.727,6.858,6.534,6.858a6.727,6.727,0,0,0,5.1-2.106L73.413-2.7A5.79,5.79,0,0,1,69.12-.891c-3.051,0-4.941-2.349-5.076-5.184H74.952v-.378c0-3.753-2.187-6.912-6.156-6.912C65.178-13.365,62.505-10.314,62.505-6.534Zm6.264-5.616a4.781,4.781,0,0,1,4.752,4.968H64.044C64.152-9.45,65.691-12.15,68.769-12.15Zm9.045,5.616c0,3.807,2.511,6.858,6.345,6.858a5.369,5.369,0,0,0,4.617-2.241L87.8-2.781A4.184,4.184,0,0,1,84.24-.945c-3.051,0-4.914-2.457-4.914-5.589S81.189-12.1,84.24-12.1A4.157,4.157,0,0,1,87.8-10.287l.972-.864a5.417,5.417,0,0,0-4.617-2.214C80.325-13.365,77.814-10.341,77.814-6.534ZM100.71,0h1.4V-13.041h-1.4v9.936a5.639,5.639,0,0,1-4.239,2.16c-1.89,0-3.159-.7-3.159-3.24v-8.856h-1.4v9.18c0,2.943,1.431,4.185,4.1,4.185a6.616,6.616,0,0,0,4.7-2.241Zm5.778,0h1.4V-9.5a4.969,4.969,0,0,1,3.7-2.322,5.7,5.7,0,0,1,.7.054v-1.539a5.6,5.6,0,0,0-4.4,2.511v-2.241h-1.4Zm7.8-6.534c0,4.023,2.727,6.858,6.534,6.858a6.727,6.727,0,0,0,5.1-2.106L125.2-2.7a5.79,5.79,0,0,1-4.293,1.809c-3.051,0-4.941-2.349-5.076-5.184h10.908v-.378c0-3.753-2.187-6.912-6.156-6.912C116.964-13.365,114.291-10.314,114.291-6.534Zm6.264-5.616a4.781,4.781,0,0,1,4.752,4.968H115.83C115.938-9.45,117.477-12.15,120.555-12.15Z" transform="translate(209 55)" fill="#fff"/>
    <g id="shield" transform="translate(112.999 29.5)">
      <path id="Path_1" data-name="Path 1" d="M70.475,38a1.04,1.04,0,0,1-.4-.079,46,46,0,0,1-7.1-3.815c-4.9-3.251-7.381-6.551-7.381-9.81V5.327a1.041,1.041,0,0,1,1.476-.946,7.785,7.785,0,0,0,3.271.712,7.89,7.89,0,0,0,7.1-4.5,1.041,1.041,0,0,1,.941-.6h4.176A1.041,1.041,0,0,1,73.5.6a7.835,7.835,0,0,0,1.975,2.593,1.041,1.041,0,0,1-1.361,1.577,9.9,9.9,0,0,1-2.189-2.682H69.021a9.986,9.986,0,0,1-8.673,5.092,9.9,9.9,0,0,1-2.664-.361V24.3c0,4.958,8.879,9.839,12.791,11.531,3.912-1.692,12.791-6.573,12.791-11.531V6.814a9.9,9.9,0,0,1-2.664.361,1.041,1.041,0,1,1,0-2.083,7.784,7.784,0,0,0,3.271-.712,1.041,1.041,0,0,1,1.476.946V24.3c0,3.259-2.484,6.559-7.381,9.81a46,46,0,0,1-7.1,3.815A1.04,1.04,0,0,1,70.475,38Z" fill="#e84545"/>
      <g id="Group_2" data-name="Group 2" transform="translate(61.247 6.591)">
        <path id="Path_3" data-name="Path 3" d="M140.884,113.953a1.04,1.04,0,0,1-.471-.113,39.606,39.606,0,0,1-4-2.322c-3.237-2.167-4.576-3.981-4.738-4.875a1.044,1.044,0,0,1-.017-.186V93.83a1.041,1.041,0,0,1,.9-1.032,13.715,13.715,0,0,0,7.605-3.706,1.041,1.041,0,0,1,1.448,0,13.716,13.716,0,0,0,7.605,3.706,1.041,1.041,0,0,1,.9,1.032v12.628a1.043,1.043,0,0,1-.017.186c-.163.894-1.5,2.708-4.738,4.875a39.6,39.6,0,0,1-4,2.322A1.038,1.038,0,0,1,140.884,113.953Zm-7.146-7.669c.212.433,1.223,1.758,3.831,3.5a36.59,36.59,0,0,0,3.315,1.952,36.6,36.6,0,0,0,3.315-1.952c2.608-1.746,3.619-3.071,3.831-3.5V94.71a15.854,15.854,0,0,1-7.146-3.464,15.854,15.854,0,0,1-7.146,3.464v11.575Z" transform="translate(-131.655 -88.799)" fill="#e84545"/>
        <path id="Path_4" data-name="Path 4" d="M198.866,216.637a1.038,1.038,0,0,1-.736-.305l-3.047-3.047a1.041,1.041,0,0,1,1.473-1.473l2.311,2.311,4.042-4.042a1.041,1.041,0,1,1,1.473,1.473l-4.779,4.779A1.038,1.038,0,0,1,198.866,216.637Z" transform="translate(-190.093 -200.797)" fill="#e84545"/>
      </g>
    </g>
  </g>
</svg>
