<svg xmlns="http://www.w3.org/2000/svg" width="31" height="30.999" viewBox="0 0 31 30.999">
  <g id="profile" transform="translate(-6 -0.001)">
    <path id="Path_13" data-name="Path 13" d="M15.5,0A15.5,15.5,0,1,0,31,15.5,15.5,15.5,0,0,0,15.5,0Zm0,4.634a5.127,5.127,0,1,1-5.126,5.127A5.127,5.127,0,0,1,15.5,4.635Zm0,22.312a11.375,11.375,0,0,1-7.408-2.732,2.185,2.185,0,0,1-.767-1.661,5.17,5.17,0,0,1,5.2-5.169h5.966a5.163,5.163,0,0,1,5.187,5.169,2.179,2.179,0,0,1-.766,1.66A11.371,11.371,0,0,1,15.5,26.947Z" transform="translate(6)" fill="#e84545"/>
  </g>
</svg>
