<?xml version="1.0" encoding="UTF-8" standalone="no" ?>
<!DOCTYPE svg PUBLIC "-//W3C//DTD SVG 1.1//EN" "http://www.w3.org/Graphics/SVG/1.1/DTD/svg11.dtd">
<svg xmlns="http://www.w3.org/2000/svg" xmlns:xlink="http://www.w3.org/1999/xlink" version="1.1" width="900" height="300" viewBox="0 0 900 300" xml:space="preserve">
<desc>Created with Fabric.js 4.2.0</desc>
<defs>
</defs>
<g transform="matrix(Infinity NaN NaN Infinity 0 0)" id="41223019-f7f6-4d97-8426-0a7cc62262f6"  >
</g>
<g transform="matrix(1 0 0 1 450 150)" id="8f655db7-5d3e-4144-896d-7b270e689626"  >
<rect style="stroke: none; stroke-width: 1; stroke-dasharray: none; stroke-linecap: butt; stroke-dashoffset: 0; stroke-linejoin: miter; stroke-miterlimit: 4; fill: rgb(37,40,64); fill-rule: nonzero; opacity: 1;" vector-effect="non-scaling-stroke"  x="-450" y="-150" rx="0" ry="0" width="900" height="300" />
</g>
<g transform="matrix(2.83 0 0 2.83 450 150)"  >
<g style="" vector-effect="non-scaling-stroke"   >
		<g transform="matrix(1 0 0 1 20.61 0.85)" id="name"  >
<path style="stroke: none; stroke-width: 1; stroke-dasharray: none; stroke-linecap: butt; stroke-dashoffset: 0; stroke-linejoin: miter; stroke-miterlimit: 4; fill: rgb(255,255,255); fill-rule: nonzero; opacity: 1;" vector-effect="non-scaling-stroke"  transform=" translate(-63.77, 5.65)" d="M 0.81 -1.7 C 2.2700346434312424 -0.3178736836600482 4.228483947321239 0.41253011053072997 6.2369999999999965 0.32400000000000007 C 9.666 0.324 11.501999999999999 -1.4309999999999998 11.501999999999999 -3.676 C 11.501999999999999 -6.676 8.802 -7.2940000000000005 6.533999999999999 -7.807 C 4.913999999999999 -8.185 3.509999999999999 -8.563 3.509999999999999 -9.697000000000001 C 3.509999999999999 -10.75 4.535999999999999 -11.397 6.182999999999999 -11.397 C 7.639388155993907 -11.442554394174378 9.045320220690133 -10.86102797425211 10.043999999999997 -9.800000000000004 L 11.124 -11.5 C 9.777843579850908 -12.750823090107051 7.992686457990937 -13.420257010804539 6.155999999999998 -13.363 C 2.9700000000000006 -13.363 1.1880000000000006 -11.581 1.1880000000000006 -9.501999999999999 C 1.1880000000000006 -6.693999999999999 3.7800000000000007 -6.1019999999999985 5.994000000000001 -5.586999999999999 C 7.668000000000001 -5.208999999999999 9.153 -4.776999999999999 9.153 -3.480999999999999 C 9.153 -2.3739999999999988 8.181000000000001 -1.617999999999999 6.345000000000001 -1.617999999999999 C 4.69976651756964 -1.6463587037000844 3.1305075831603077 -2.315464307877818 1.971 -3.483 Z M 18.171 0.324 C 19.09494085216621 0.396050292781062 20.009181167247025 0.09454550802036826 20.709 -0.5130000000000001 L 20.088 -2.349 C 19.73158385011579 -2.010732189225349 19.25629022788783 -1.8264346622389993 18.765 -1.8360000000000003 C 17.928 -1.8360000000000003 17.496000000000002 -2.511 17.496000000000002 -3.4290000000000003 L 17.496000000000002 -10.908000000000001 L 20.142000000000003 -10.908000000000001 L 20.142000000000003 -13.041 L 17.5 -13.041 L 17.5 -16.6 L 15.07 -16.6 L 15.07 -13.036000000000001 L 12.91 -13.036000000000001 L 12.91 -10.903000000000002 L 15.07 -10.903000000000002 L 15.07 -2.884000000000002 C 15.066 -0.837 16.119 0.324 18.171 0.324 Z M 30.888 0 L 33.318000000000005 0 L 33.318000000000005 -8.8 C 33.318000000000005 -12.121 30.918000000000006 -13.363 28.080000000000005 -13.363 C 26.081730686801556 -13.410538824224922 24.15069593561246 -12.640075463901999 22.734000000000005 -11.229999999999999 L 23.787000000000006 -9.556000000000001 C 24.792933318491485 -10.653216467355245 26.21145906533746 -11.280369429799288 27.699999999999996 -11.286 C 29.563 -11.286 30.886 -10.314 30.886 -8.693999999999999 L 30.886 -6.533999999999999 C 29.789798276761424 -7.712940400395299 28.227654102482347 -8.345707660862772 26.619999999999997 -8.261999999999997 C 24.432999999999996 -8.261999999999999 22.083999999999996 -6.961999999999999 22.083999999999996 -3.9959999999999987 C 22.086510596329365 -2.812749508695555 22.572697589781374 -1.6819720556754958 23.42971570720852 -0.866124046137096 C 24.286733824635665 -0.05027603659869628 25.440058478752867 0.37969801269481795 26.622 0.32399999999999984 C 28.230330196904735 0.38034720585890525 29.78492047191526 -0.2591994262656783 30.887999999999998 -1.4309999999999985 Z M 30.888 -2.862 C 30.06440923216141 -1.8722904795982793 28.826441358179117 -1.323191825815812 27.54 -1.3770000000000002 C 25.785 -1.377 24.54 -2.4299999999999997 24.54 -3.9690000000000003 C 24.54 -5.508000000000001 25.782 -6.561 27.54 -6.561 C 28.826441358179117 -6.614808174184186 30.064409232161406 -6.065709520401719 30.887999999999998 -5.075999999999999 Z M 36.936 2.9159999999999995 L 36.558 5.1 C 37.053655029843846 5.217643515858669 37.56063749024767 5.28101632340915 38.07 5.2890000000000015 C 39.93174602476086 5.401804584171903 41.63715188001793 4.250101928673622 42.228 2.4810000000000008 L 48.654 -13.044 L 46.035 -13.044 L 41.958 -2.808 L 37.881 -13.041 L 35.289 -13.041 L 40.662 0.135 L 39.906 1.863 C 39.65744133580633 2.6812628796743576 38.86746168428786 3.211677788551044 38.016 3.1319999999999997 C 37.645664434417405 3.1281292465516524 37.279336965710215 3.0548637528102143 36.936 2.916 Z M 49.736000000000004 -1.7280000000000006 C 51.015579463448255 -0.3238499795821477 52.85921996079195 0.42976561813682723 54.756 0.32399999999999896 C 58 0.324 59.643 -1.4 59.643 -3.51 C 59.643 -6.291 57.132 -6.91 54.891 -7.478999999999999 C 53.082 -7.937999999999999 51.408 -8.343 51.408 -9.828 C 51.408 -11.177999999999999 52.65 -12.177 54.675000000000004 -12.177 C 56.17090383149455 -12.24592759316174 57.611752965572165 -11.605550200238355 58.563 -10.449000000000002 L 59.346000000000004 -11.421 C 58.15842661680432 -12.735435657981743 56.444479237855454 -13.448754798353523 54.675000000000004 -13.364999999999998 C 51.705000000000005 -13.364999999999998 50.031000000000006 -11.744999999999997 50.031000000000006 -9.746999999999998 C 50.031000000000006 -7.208999999999998 52.431000000000004 -6.641999999999998 54.59400000000001 -6.1019999999999985 C 56.48400000000001 -5.615999999999999 58.266000000000005 -5.129999999999999 58.266000000000005 -3.4559999999999986 C 58.266000000000005 -1.9439999999999986 56.96600000000001 -0.8639999999999985 54.78300000000001 -0.8639999999999985 C 53.16213298611298 -0.8369579973008557 51.61520446570988 -1.5410087982535503 50.57100000000001 -2.780999999999998 Z M 62.505 -6.534 C 62.505 -2.511 65.232 0.32399999999999984 69.039 0.32399999999999984 C 70.96193578748638 0.38357293345212384 72.81836028795766 -0.383021183801312 74.139 -1.7820000000000018 L 73.413 -2.7 C 72.29840282306643 -1.5225207287348383 70.74116485913262 -0.8663261150017276 69.12 -0.8910000000000005 C 66.069 -0.891 64.179 -3.24 64.04400000000001 -6.075 L 74.952 -6.075 L 74.952 -6.453 C 74.952 -10.206 72.765 -13.365 68.79599999999999 -13.365 C 65.178 -13.365 62.505 -10.314 62.505 -6.534 Z M 68.769 -12.149999999999999 C 70.06503506267839 -12.143131028485573 71.30275046037494 -11.61038495640984 72.19861182772135 -10.673802617820412 C 73.09447319506775 -9.737220279230986 73.57171093647378 -8.477060796790388 73.521 -7.181999999999995 L 64.044 -7.181999999999999 C 64.152 -9.45 65.691 -12.15 68.769 -12.15 Z M 77.81400000000001 -6.533999999999999 C 77.81400000000001 -2.726999999999999 80.325 0.32400000000000073 84.159 0.32400000000000073 C 85.9785000861346 0.4085324581644975 87.71677144844111 -0.4351898989784222 88.77600000000001 -1.9170000000000007 L 87.8 -2.781 C 87.00240964081632 -1.6038282340163241 85.66155372438269 -0.9123081602600986 84.24 -0.9449999999999998 C 81.189 -0.945 79.326 -3.4019999999999997 79.326 -6.534000000000001 C 79.326 -9.666000000000002 81.189 -12.1 84.24 -12.1 C 85.6583209287278 -12.142867825278072 87.00053644059471 -11.459318183981807 87.8 -10.287 L 88.77199999999999 -11.151000000000002 C 87.70094342936937 -12.615695886761555 85.96767655357237 -13.446853102056025 84.15499999999999 -13.365000000000002 C 80.325 -13.365 77.814 -10.341 77.814 -6.534 Z M 100.71 0 L 102.11 0 L 102.11 -13.041 L 100.71 -13.041 L 100.71 -3.1050000000000004 C 99.68476582121524 -1.7949959474764405 98.13343036258928 -1.004506541807158 96.47099999999999 -0.9449999999999994 C 94.58099999999999 -0.9450000000000003 93.31199999999998 -1.6450000000000002 93.31199999999998 -4.1850000000000005 L 93.31199999999998 -13.041 L 91.91199999999998 -13.041 L 91.91199999999998 -3.8610000000000007 C 91.91199999999998 -0.9180000000000006 93.34299999999998 0.32399999999999896 96.01199999999997 0.32399999999999896 C 97.81911945933838 0.2508146996281455 99.51749758678555 -0.5589864458205933 100.71199999999997 -1.9169999999999998 Z M 106.488 0 L 107.888 0 L 107.888 -9.5 C 108.69674727918867 -10.803679227736763 110.0623432539181 -11.66068297187777 111.58800000000001 -11.822 C 111.82222126455645 -11.818400805583792 112.05599793570696 -11.800366605237896 112.28800000000001 -11.767999999999999 L 112.28800000000001 -13.306999999999999 C 110.50493448311934 -13.219186433728542 108.87058268032857 -12.286491575363172 107.888 -10.796 L 107.888 -13.036999999999999 L 106.488 -13.036999999999999 Z M 114.288 -6.534 C 114.288 -2.511 117.015 0.32399999999999984 120.822 0.32399999999999984 C 122.74493578748638 0.38357293345212384 124.60136028795766 -0.383021183801312 125.922 -1.7820000000000018 L 125.2 -2.7 C 124.08540282306643 -1.5225207287348348 122.52816485913263 -0.8663261150017239 120.907 -0.8910000000000005 C 117.856 -0.8910000000000002 115.966 -3.24 115.831 -6.075 L 126.739 -6.075 L 126.739 -6.453 C 126.739 -10.206 124.552 -13.365 120.583 -13.365 C 116.964 -13.365 114.291 -10.314 114.291 -6.534 Z M 120.55199999999999 -12.149999999999999 C 121.84803506267838 -12.143131028485573 123.08575046037492 -11.61038495640984 123.98161182772134 -10.673802617820412 C 124.87747319506774 -9.737220279230986 125.35471093647377 -8.477060796790388 125.30399999999999 -7.181999999999995 L 115.83 -7.181999999999999 C 115.938 -9.45 117.477 -12.15 120.555 -12.15 Z" stroke-linecap="round" />
</g>
		<g transform="matrix(1 0 0 1 -68.7 0)" id="Path_1"  >
<path style="stroke: none; stroke-width: 1; stroke-dasharray: none; stroke-linecap: butt; stroke-dashoffset: 0; stroke-linejoin: miter; stroke-miterlimit: 4; fill: rgb(232,69,69); fill-rule: nonzero; opacity: 1;" vector-effect="non-scaling-stroke"  transform=" translate(-70.47, -19)" d="M 70.475 38 C 70.3377602217368 38.00031694525842 70.20181480576774 37.97346772560453 70.07499999999999 37.921 C 67.60126790301703 36.85952383342609 65.22548370624766 35.58295809952817 62.97499999999998 34.105999999999995 C 58.07499999999999 30.855 55.59399999999999 27.555 55.59399999999999 24.296 L 55.59399999999999 5.327 C 55.59391711840612 4.972192360912665 55.77455299169813 4.641774737608463 56.07327229488225 4.450319140852244 C 56.37199159806637 4.258863544096025 56.7476544130691 4.232737428154412 57.069999999999986 4.381 C 58.095801832373255 4.852723661666154 59.211936021774314 5.095673078619242 60.34099999999999 5.093 C 63.37621649954869 5.083527487679162 66.13690400277821 3.3337959715477745 67.44099999999999 0.593 C 67.61190521258477 0.22755780171546613 67.97856970092906 -0.006234645687901885 68.38199999999999 -0.007000000000000117 L 72.55799999999999 -0.007000000000000006 C 72.96340818547371 -0.005356517012655533 73.33098450486845 0.23149998603682864 73.5 0.5999999999999999 C 73.9692773926321 1.5932290312234798 74.64216963193023 2.4766769180589714 75.475 3.192999999999999 C 75.91047652524158 3.568829772259856 75.95882977225985 4.226523474758421 75.583 4.662000000000002 C 75.20717022774014 5.097476525241582 74.54947652524157 5.145829772259856 74.11399999999999 4.7700000000000005 C 73.2324729208091 4.0115071209548905 72.49147932289904 3.10362917230493 71.92499999999998 2.088 L 69.021 2.0879999999999996 C 67.25811856469191 5.223527605813714 63.94510370176456 7.168629840568251 60.348 7.18 C 59.44771643064215 7.181355620706247 58.5514550100665 7.059902778053165 57.684 6.819000000000001 L 57.684 24.3 C 57.684 29.258000000000003 66.563 34.139 70.475 35.831 C 74.387 34.139 83.26599999999999 29.258000000000003 83.26599999999999 24.300000000000004 L 83.26599999999999 6.814 C 82.3985449899335 7.054902778053164 81.50228356935783 7.176355620706248 80.60199999999999 7.175000000000001 C 80.02679543305122 7.175 79.56049999999999 6.7087045669487715 79.56049999999999 6.1335 C 79.56049999999999 5.558295433051228 80.02679543305122 5.092 80.60199999999999 5.092 C 81.73106737585518 5.09470501985375 82.84720835368363 4.851754125260704 83.87299999999999 4.380000000000002 C 84.19534558693088 4.2317374281544105 84.57100840193361 4.257863544096025 84.86972770511773 4.449319140852243 C 85.16844700830185 4.640774737608462 85.34908288159386 4.971192360912665 85.34899999999999 5.326 L 85.34899999999999 24.3 C 85.34899999999999 27.559 82.865 30.859 77.96799999999999 34.11 C 75.71751629375233 35.586958099528175 73.34173209698294 36.86352383342609 70.868 37.925000000000004 C 70.74308880460931 37.975200000144994 70.60961944945069 38.00067125112946 70.475 38 Z" stroke-linecap="round" />
</g>
		<g transform="matrix(1 0 0 1 -68.69 0.17)" id="Path_3"  >
<path style="stroke: none; stroke-width: 1; stroke-dasharray: none; stroke-linecap: butt; stroke-dashoffset: 0; stroke-linejoin: miter; stroke-miterlimit: 4; fill: rgb(232,69,69); fill-rule: nonzero; opacity: 1;" vector-effect="non-scaling-stroke"  transform=" translate(-140.89, -101.38)" d="M 140.884 113.953 C 140.72029456006584 113.95292815037561 140.55891821253581 113.91421153196607 140.41299999999998 113.84 C 139.03557331571025 113.14457937589731 137.69996324455377 112.36925772959097 136.41299999999998 111.518 C 133.176 109.351 131.837 107.537 131.67499999999998 106.643 C 131.66378756681104 106.58163243510465 131.65809813773785 106.51938338759786 131.658 106.457 L 131.658 93.83 C 131.6577033201073 93.30933410890991 132.04213213922492 92.86852239632168 132.558 92.798 C 135.4201854479297 92.39490521614262 138.08185261368521 91.09784558217945 140.16299999999998 89.092 C 140.56661638279058 88.70133422459853 141.2073836172094 88.70133422459853 141.611 89.092 C 143.69218702488186 91.09778889273265 146.35383477496197 92.39483906522402 149.21599999999998 92.798 C 149.73186786077505 92.86852239632168 150.11629667989268 93.30933410890991 150.11599999999999 93.83 L 150.11599999999999 106.458 C 150.1159072337028 106.52038363667448 150.11021776078465 106.58263316389696 150.099 106.644 C 149.93599999999998 107.53800000000001 148.599 109.352 145.361 111.519 C 144.07404396602828 112.37026935500626 142.73843320371947 113.14559140252653 141.361 113.84100000000001 C 141.2132157220954 113.91586289675523 141.04965941933418 113.95426605379771 140.884 113.953 Z M 133.738 106.284 C 133.95 106.71700000000001 134.961 108.042 137.569 109.784 C 138.6390068159323 110.49234568874509 139.74553577577953 111.14391266600659 140.88400000000001 111.73600000000002 C 142.02245527744114 111.14389651544231 143.12898340074923 110.49233003076736 144.19899999999998 109.784 C 146.807 108.03800000000001 147.81799999999998 106.71300000000001 148.02999999999997 106.284 L 148.02999999999997 94.71 C 145.39270170815968 94.18026808205411 142.933555848943 92.98820521383041 140.884 91.246 C 138.83444415105697 92.98820521383041 136.3752982918403 94.18026808205411 133.738 94.71 L 133.738 106.285 Z" stroke-linecap="round" />
</g>
		<g transform="matrix(1 0 0 1 -68.28 0)" id="Path_4"  >
<path style="stroke: none; stroke-width: 1; stroke-dasharray: none; stroke-linecap: butt; stroke-dashoffset: 0; stroke-linejoin: miter; stroke-miterlimit: 4; fill: rgb(232,69,69); fill-rule: nonzero; opacity: 1;" vector-effect="non-scaling-stroke"  transform=" translate(-199.73, -213.21)" d="M 198.866 216.637 C 198.5898638384711 216.63727855551667 198.32499784542276 216.5275175122018 198.13000000000002 216.332 L 195.08300000000003 213.285 C 194.67624228174964 212.8782422817496 194.67624228174964 212.21875771825037 195.08300000000003 211.81199999999998 C 195.48975771825042 211.4052422817496 196.14924228174965 211.4052422817496 196.55600000000004 211.81199999999998 L 198.86700000000005 214.123 L 202.90900000000005 210.081 C 203.31575771825044 209.6742422817496 203.97524228174967 209.6742422817496 204.38200000000006 210.081 C 204.78875771825045 210.48775771825038 204.78875771825045 211.1472422817496 204.38200000000006 211.554 L 199.60300000000007 216.333 C 199.40759329070056 216.52839675028346 199.14233858988476 216.6378098154775 198.866 216.637 Z" stroke-linecap="round" />
</g>
</g>
</g>
</svg>